<svg width="25" height="24" viewBox="0 0 25 24" fill="none" xmlns="http://www.w3.org/2000/svg">
<mask id="mask0_91_289" style="mask-type:alpha" maskUnits="userSpaceOnUse" x="0" y="0" width="25" height="24">
<rect x="0.5" width="24" height="24" fill="#D9D9D9"/>
</mask>
<g mask="url(#mask0_91_289)">
<path d="M6.69625 17.4845C7.54625 16.873 8.44817 16.3894 9.402 16.0337C10.3558 15.6779 11.3885 15.5 12.5 15.5C13.6115 15.5 14.6442 15.6779 15.598 16.0337C16.5518 16.3894 17.4538 16.873 18.3038 17.4845C18.9641 16.8012 19.4952 15.9942 19.897 15.0635C20.299 14.1327 20.5 13.1115 20.5 12C20.5 9.78333 19.7208 7.89583 18.1625 6.3375C16.6042 4.77917 14.7167 4 12.5 4C10.2833 4 8.39583 4.77917 6.8375 6.3375C5.27917 7.89583 4.5 9.78333 4.5 12C4.5 13.1115 4.701 14.1327 5.103 15.0635C5.50483 15.9942 6.03592 16.8012 6.69625 17.4845ZM12.5005 12.5C11.6578 12.5 10.9471 12.2108 10.3683 11.6323C9.78942 11.0538 9.5 10.3432 9.5 9.5005C9.5 8.65783 9.78925 7.94708 10.3677 7.36825C10.9462 6.78942 11.6568 6.5 12.4995 6.5C13.3422 6.5 14.0529 6.78925 14.6318 7.36775C15.2106 7.94625 15.5 8.65683 15.5 9.4995C15.5 10.3422 15.2107 11.0529 14.6322 11.6318C14.0538 12.2106 13.3432 12.5 12.5005 12.5ZM12.5 21C11.2448 21 10.0698 20.7663 8.975 20.299C7.88017 19.8317 6.92758 19.1929 6.11725 18.3828C5.30708 17.5724 4.66833 16.6198 4.201 15.525C3.73367 14.4302 3.5 13.2552 3.5 12C3.5 10.7448 3.73367 9.56983 4.201 8.475C4.66833 7.38017 5.30708 6.42758 6.11725 5.61725C6.92758 4.80708 7.88017 4.16833 8.975 3.701C10.0698 3.23367 11.2448 3 12.5 3C13.7552 3 14.9302 3.23367 16.025 3.701C17.1198 4.16833 18.0724 4.80708 18.8828 5.61725C19.6929 6.42758 20.3317 7.38017 20.799 8.475C21.2663 9.56983 21.5 10.7448 21.5 12C21.5 13.2552 21.2663 14.4302 20.799 15.525C20.3317 16.6198 19.6929 17.5724 18.8828 18.3828C18.0724 19.1929 17.1198 19.8317 16.025 20.299C14.9302 20.7663 13.7552 21 12.5 21ZM12.5 20C13.4218 20 14.3289 19.8388 15.2212 19.5163C16.1134 19.1939 16.8845 18.7526 17.5345 18.1923C16.8845 17.6704 16.1326 17.2579 15.2788 16.9548C14.4249 16.6516 13.4987 16.5 12.5 16.5C11.5013 16.5 10.5718 16.6484 9.7115 16.9453C8.85133 17.2421 8.10267 17.6578 7.4655 18.1923C8.1155 18.7526 8.88658 19.1939 9.77875 19.5163C10.6711 19.8388 11.5782 20 12.5 20ZM12.5 11.5C13.0615 11.5 13.5352 11.3071 13.9212 10.9212C14.3071 10.5352 14.5 10.0615 14.5 9.5C14.5 8.9385 14.3071 8.46475 13.9212 8.07875C13.5352 7.69292 13.0615 7.5 12.5 7.5C11.9385 7.5 11.4648 7.69292 11.0788 8.07875C10.6929 8.46475 10.5 8.9385 10.5 9.5C10.5 10.0615 10.6929 10.5352 11.0788 10.9212C11.4648 11.3071 11.9385 11.5 12.5 11.5Z" fill="#ABABAB"/>
</g>
</svg>
