<svg width="24" height="24" viewBox="0 0 24 24" fill="none" xmlns="http://www.w3.org/2000/svg">
<mask id="mask0_91_174" style="mask-type:alpha" maskUnits="userSpaceOnUse" x="0" y="0" width="24" height="24">
<rect width="24" height="24" fill="#D9D9D9"/>
</mask>
<g mask="url(#mask0_91_174)">
<path d="M6.52294 12.5L10.2577 16.2345C10.355 16.332 10.4059 16.4468 10.4104 16.5788C10.4149 16.7109 10.364 16.8321 10.2577 16.9423C10.1474 17.0526 10.0284 17.1087 9.90094 17.1105C9.77327 17.1125 9.65436 17.0583 9.54419 16.948L5.16144 12.5655C4.99994 12.4038 4.91919 12.2153 4.91919 12C4.91919 11.7847 4.99994 11.5962 5.16144 11.4345L9.54419 7.05201C9.64169 6.95451 9.75736 6.90351 9.89119 6.89901C10.0252 6.89451 10.1474 6.94742 10.2577 7.05776C10.364 7.16792 10.4182 7.28584 10.4202 7.41151C10.422 7.53717 10.3679 7.65517 10.2577 7.76551L6.52294 11.5H18.9037C19.046 11.5 19.1649 11.5478 19.2604 11.6433C19.3559 11.7388 19.4037 11.8577 19.4037 12C19.4037 12.1423 19.3559 12.2613 19.2604 12.3568C19.1649 12.4523 19.046 12.5 18.9037 12.5H6.52294Z" fill="#1D1D1D"/>
</g>
</svg>
