<svg width="25" height="24" viewBox="0 0 25 24" fill="none" xmlns="http://www.w3.org/2000/svg">
<mask id="mask0_91_141" style="mask-type:alpha" maskUnits="userSpaceOnUse" x="0" y="0" width="25" height="24">
<rect x="0.5" width="24" height="24" fill="#D9D9D9"/>
</mask>
<g mask="url(#mask0_91_141)">
<path d="M6.1155 20C5.67117 20 5.29083 19.8418 4.9745 19.5255C4.65817 19.2092 4.5 18.8288 4.5 18.3845V5.6155C4.5 5.17117 4.65817 4.79083 4.9745 4.4745C5.29083 4.15817 5.67117 4 6.1155 4H10.8155C10.7243 3.48967 10.8464 3.02875 11.1817 2.61725C11.5169 2.20575 11.9595 2 12.5095 2C13.0595 2 13.5022 2.20575 13.8375 2.61725C14.1728 3.02875 14.2885 3.48967 14.1845 4H18.8845C19.3288 4 19.7092 4.15817 20.0255 4.4745C20.3418 4.79083 20.5 5.17117 20.5 5.6155V10.7557C20.5 10.8974 20.452 11.0162 20.356 11.112C20.26 11.2078 20.1411 11.2558 19.9992 11.2558C19.8574 11.2558 19.7387 11.2078 19.6432 11.112C19.5477 11.0162 19.5 10.8974 19.5 10.7557V5.6155C19.5 5.4615 19.4359 5.32042 19.3077 5.19225C19.1796 5.06408 19.0385 5 18.8845 5H6.1155C5.9615 5 5.82042 5.06408 5.69225 5.19225C5.56408 5.32042 5.5 5.4615 5.5 5.6155V18.3845C5.5 18.5385 5.56408 18.6796 5.69225 18.8078C5.82042 18.9359 5.9615 19 6.1155 19H11.2308C11.3724 19 11.4912 19.048 11.587 19.144C11.6828 19.24 11.7308 19.3589 11.7308 19.5008C11.7308 19.6426 11.6828 19.7612 11.587 19.8568C11.4912 19.9523 11.3724 20 11.2308 20H6.1155ZM5.5 19V5V11.3058V11.2308V19ZM8.5 16.2693H11.8845C12.0262 16.2693 12.1449 16.2213 12.2408 16.1253C12.3366 16.0293 12.3845 15.9103 12.3845 15.7685C12.3845 15.6267 12.3366 15.508 12.2408 15.4125C12.1449 15.317 12.0262 15.2693 11.8845 15.2693H8.5C8.35833 15.2693 8.23958 15.3173 8.14375 15.4133C8.04792 15.5091 8 15.628 8 15.77C8 15.9118 8.04792 16.0305 8.14375 16.126C8.23958 16.2215 8.35833 16.2693 8.5 16.2693ZM8.5 12.5H14.9808C15.1224 12.5 15.2412 12.452 15.337 12.356C15.4328 12.26 15.4808 12.1411 15.4808 11.9993C15.4808 11.8574 15.4328 11.7388 15.337 11.6433C15.2412 11.5478 15.1224 11.5 14.9808 11.5H8.5C8.35833 11.5 8.23958 11.548 8.14375 11.644C8.04792 11.74 8 11.8589 8 12.0008C8 12.1426 8.04792 12.2612 8.14375 12.3567C8.23958 12.4522 8.35833 12.5 8.5 12.5ZM8.5 8.73075H16.5C16.6417 8.73075 16.7604 8.68275 16.8562 8.58675C16.9521 8.49092 17 8.372 17 8.23C17 8.08817 16.9521 7.9695 16.8562 7.874C16.7604 7.7785 16.6417 7.73075 16.5 7.73075H8.5C8.35833 7.73075 8.23958 7.77875 8.14375 7.87475C8.04792 7.97075 8 8.08967 8 8.2315C8 8.37333 8.04792 8.492 8.14375 8.5875C8.23958 8.683 8.35833 8.73075 8.5 8.73075ZM12.5 4.44225C12.7167 4.44225 12.8958 4.37142 13.0375 4.22975C13.1792 4.08808 13.25 3.90892 13.25 3.69225C13.25 3.47558 13.1792 3.29642 13.0375 3.15475C12.8958 3.01308 12.7167 2.94225 12.5 2.94225C12.2833 2.94225 12.1042 3.01308 11.9625 3.15475C11.8208 3.29642 11.75 3.47558 11.75 3.69225C11.75 3.90892 11.8208 4.08808 11.9625 4.22975C12.1042 4.37142 12.2833 4.44225 12.5 4.44225ZM18.5 22.1155C17.3858 22.1155 16.4407 21.7273 15.6645 20.951C14.8882 20.1747 14.5 19.2295 14.5 18.1155C14.5 17.0013 14.8882 16.0561 15.6645 15.2797C16.4407 14.5036 17.3858 14.1155 18.5 14.1155C19.6142 14.1155 20.5593 14.5036 21.3355 15.2797C22.1118 16.0561 22.5 17.0013 22.5 18.1155C22.5 19.2295 22.1118 20.1747 21.3355 20.951C20.5593 21.7273 19.6142 22.1155 18.5 22.1155ZM18.1155 18.5V20.6155C18.1155 20.718 18.1539 20.8077 18.2308 20.8845C18.3077 20.9615 18.3975 21 18.5 21C18.6025 21 18.6923 20.9615 18.7693 20.8845C18.8461 20.8077 18.8845 20.718 18.8845 20.6155V18.5H21C21.1025 18.5 21.1923 18.4615 21.2693 18.3845C21.3461 18.3077 21.3845 18.218 21.3845 18.1155C21.3845 18.0128 21.3461 17.9231 21.2693 17.8462C21.1923 17.7692 21.1025 17.7308 21 17.7308H18.8845V15.6155C18.8845 15.5128 18.8461 15.4231 18.7693 15.3462C18.6923 15.2692 18.6025 15.2308 18.5 15.2308C18.3975 15.2308 18.3077 15.2692 18.2308 15.3462C18.1539 15.4231 18.1155 15.5128 18.1155 15.6155V17.7308H16C15.8975 17.7308 15.8077 17.7692 15.7308 17.8462C15.6539 17.9231 15.6155 18.0128 15.6155 18.1155C15.6155 18.218 15.6539 18.3077 15.7308 18.3845C15.8077 18.4615 15.8975 18.5 16 18.5H18.1155Z" fill="#ABABAB"/>
</g>
</svg>
