<svg width="32" height="32" viewBox="0 0 32 32" fill="none" xmlns="http://www.w3.org/2000/svg">
<rect width="32" height="32" rx="8" fill="#225AAC"/>
<mask id="mask0_1_876" style="mask-type:alpha" maskUnits="userSpaceOnUse" x="6" y="6" width="20" height="20">
<rect x="6" y="6" width="20" height="20" fill="#D9D9D9"/>
</mask>
<g mask="url(#mask0_1_876)">
<path d="M21.7756 22.6667C20.3707 22.6667 18.9306 22.3149 17.4552 21.6115C15.9798 20.9078 14.609 19.9203 13.3429 18.649C12.0769 17.3777 11.0921 16.007 10.3885 14.5369C9.68505 13.0667 9.33331 11.6292 9.33331 10.2244C9.33331 9.96979 9.41665 9.75763 9.58331 9.58791C9.74998 9.41819 9.95831 9.33333 10.2083 9.33333H12.2691C12.4957 9.33333 12.6933 9.40465 12.8621 9.54729C13.031 9.68993 13.1453 9.87291 13.2052 10.0962L13.6185 12.0833C13.657 12.3162 13.65 12.5198 13.5977 12.694C13.5453 12.8681 13.4529 13.0108 13.3204 13.1219L11.4921 14.8269C11.8339 15.4476 12.2118 16.0242 12.6258 16.5569C13.0398 17.0895 13.4814 17.594 13.9504 18.0704C14.4343 18.5544 14.9551 19.0045 15.5129 19.4206C16.0705 19.8367 16.6827 20.2296 17.3494 20.5994L19.1314 18.7852C19.2671 18.6388 19.4196 18.5424 19.5889 18.496C19.7582 18.4495 19.9455 18.4401 20.1506 18.4679L21.9037 18.8269C22.1303 18.8824 22.3141 18.9965 22.4552 19.1692C22.5962 19.3417 22.6666 19.5396 22.6666 19.7629V21.7917C22.6666 22.0417 22.5818 22.25 22.4121 22.4167C22.2423 22.5833 22.0302 22.6667 21.7756 22.6667ZM11.101 14.0448L12.7004 12.5737C12.7537 12.531 12.7885 12.4722 12.8046 12.3975C12.8205 12.3226 12.8178 12.2532 12.7964 12.1892L12.4262 10.4231C12.4048 10.3376 12.3675 10.2735 12.3141 10.2308C12.2607 10.1881 12.1912 10.1667 12.1058 10.1667H10.3958C10.3316 10.1667 10.2782 10.1881 10.2356 10.2308C10.1928 10.2735 10.1714 10.3269 10.1714 10.391C10.1874 10.9605 10.2766 11.555 10.4391 12.1746C10.6015 12.7943 10.8221 13.4177 11.101 14.0448ZM18.1427 20.9904C18.7056 21.2693 19.3057 21.4755 19.9431 21.609C20.5803 21.7426 21.1356 21.8142 21.6089 21.8237C21.6731 21.8237 21.7265 21.8024 21.7691 21.7596C21.8119 21.7168 21.8333 21.6634 21.8333 21.5994V19.9262C21.8333 19.8408 21.8119 19.7714 21.7691 19.7179C21.7265 19.6646 21.6624 19.6272 21.5769 19.6058L20.0352 19.29C19.9712 19.2686 19.9151 19.266 19.8671 19.2821C19.8189 19.2981 19.7681 19.3328 19.7148 19.3862L18.1427 20.9904Z" fill="white"/>
</g>
</svg>
