<svg width="32" height="32" viewBox="0 0 32 32" fill="none" xmlns="http://www.w3.org/2000/svg">
<rect width="32" height="32" rx="8" fill="#225AAC"/>
<mask id="mask0_1_876" style="mask-type:alpha" maskUnits="userSpaceOnUse" x="6" y="6" width="20" height="20">
<rect x="6" y="6" width="20" height="20" fill="#D9D9D9"/>
</mask>
<g mask="url(#mask0_1_876)">
<path d="M15.125 20.0546L19.2564 15.9231L18.6571 15.3237L15.1202 18.8606L13.3381 17.0785L12.7435 17.6731L15.125 20.0546ZM11.5129 23.5C11.1293 23.5 10.809 23.3715 10.5521 23.1146C10.2951 22.8576 10.1667 22.5374 10.1667 22.1538V9.84625C10.1667 9.46264 10.2951 9.14236 10.5521 8.88542C10.809 8.62847 11.1293 8.5 11.5129 8.5H18.0833L21.8333 12.25V22.1538C21.8333 22.5374 21.7049 22.8576 21.4479 23.1146C21.191 23.3715 20.8707 23.5 20.4871 23.5H11.5129ZM17.6667 12.6667V9.33333H11.5129C11.3846 9.33333 11.267 9.38674 11.1602 9.49354C11.0534 9.60035 11 9.71792 11 9.84625V22.1538C11 22.2821 11.0534 22.3997 11.1602 22.5065C11.267 22.6133 11.3846 22.6667 11.5129 22.6667H20.4871C20.6154 22.6667 20.733 22.6133 20.8398 22.5065C20.9466 22.3997 21 22.2821 21 22.1538V12.6667H17.6667Z" fill="white"/>
</g>
</svg>
