<svg width="18" height="18" viewBox="0 0 18 18" fill="none" xmlns="http://www.w3.org/2000/svg">
<mask id="mask0_91_87" style="mask-type:alpha" maskUnits="userSpaceOnUse" x="0" y="0" width="18" height="18">
<rect width="18" height="18" fill="#D9D9D9"/>
</mask>
<g mask="url(#mask0_91_87)">
<path d="M14.1981 15C12.9337 15 11.6376 14.6834 10.3097 14.0503C8.98181 13.4171 7.74813 12.5283 6.60863 11.3841C5.46925 10.2399 4.58294 9.00631 3.94969 7.68319C3.31656 6.36006 3 5.06631 3 3.80194C3 3.57281 3.075 3.38187 3.225 3.22912C3.375 3.07637 3.5625 3 3.7875 3H5.64225C5.84613 3 6.024 3.06419 6.17588 3.19256C6.32788 3.32094 6.43081 3.48562 6.48469 3.68662L6.85669 5.475C6.89131 5.68462 6.88506 5.86781 6.83794 6.02456C6.79081 6.18131 6.70763 6.30969 6.58838 6.40969L4.94287 7.94419C5.2505 8.50281 5.59063 9.02181 5.96325 9.50119C6.33588 9.98056 6.73325 10.4346 7.15538 10.8634C7.59088 11.299 8.05963 11.7041 8.56163 12.0786C9.0635 12.4531 9.61444 12.8067 10.2144 13.1394L11.8183 11.5067C11.9404 11.3749 12.0777 11.2882 12.2301 11.2464C12.3824 11.2046 12.5509 11.1961 12.7356 11.2211L14.3134 11.5442C14.5173 11.5942 14.6827 11.6969 14.8097 11.8523C14.9366 12.0075 15 12.1856 15 12.3866V14.2125C15 14.4375 14.9236 14.625 14.7709 14.775C14.6181 14.925 14.4272 15 14.1981 15ZM4.59094 7.24031L6.03038 5.91637C6.07838 5.87787 6.10963 5.825 6.12413 5.75775C6.1385 5.69038 6.13606 5.62788 6.11681 5.57025L5.78362 3.98081C5.76437 3.90381 5.73075 3.84613 5.68275 3.80775C5.63462 3.76925 5.57212 3.75 5.49525 3.75H3.95625C3.8985 3.75 3.85044 3.76925 3.81206 3.80775C3.77356 3.84613 3.75431 3.89419 3.75431 3.95194C3.76869 4.46444 3.849 4.9995 3.99525 5.55713C4.14138 6.11488 4.33994 6.67594 4.59094 7.24031ZM10.9284 13.4914C11.4351 13.7424 11.9752 13.9279 12.5488 14.0481C13.1223 14.1683 13.6221 14.2327 14.0481 14.2414C14.1058 14.2414 14.1539 14.2221 14.1922 14.1836C14.2307 14.1451 14.25 14.0971 14.25 14.0394V12.5336C14.25 12.4568 14.2307 12.3943 14.1922 12.3461C14.1539 12.2981 14.0962 12.2645 14.0192 12.2452L12.6317 11.961C12.5741 11.9418 12.5236 11.9394 12.4804 11.9539C12.437 11.9683 12.3913 11.9995 12.3433 12.0476L10.9284 13.4914Z" fill="#292C30"/>
</g>
</svg>
