<svg width="18" height="18" viewBox="0 0 18 18" fill="none" xmlns="http://www.w3.org/2000/svg">
<mask id="mask0_91_93" style="mask-type:alpha" maskUnits="userSpaceOnUse" x="0" y="0" width="18" height="18">
<rect width="18" height="18" fill="#D9D9D9"/>
</mask>
<g mask="url(#mask0_91_93)">
<path d="M3.92306 13.5V14.5384C3.92306 14.6666 3.87806 14.7756 3.78806 14.8654C3.69794 14.9551 3.5885 15 3.45975 15C3.33113 15 3.22237 14.9551 3.1335 14.8654C3.0445 14.7756 3 14.6666 3 14.5384V9.32025C3 9.252 3.00387 9.18369 3.01162 9.11531C3.01925 9.04706 3.03444 8.97912 3.05719 8.9115L4.33706 5.31056C4.41681 5.07044 4.56138 4.87531 4.77075 4.72519C4.98013 4.57506 5.21438 4.5 5.4735 4.5H12.5265C12.7856 4.5 13.0199 4.57506 13.2292 4.72519C13.4386 4.87531 13.5832 5.07044 13.6629 5.31056L14.9428 8.9115C14.9656 8.97912 14.9807 9.04706 14.9884 9.11531C14.9961 9.18369 15 9.252 15 9.32025V14.5384C15 14.6666 14.9549 14.7756 14.8648 14.8654C14.7748 14.9551 14.6654 15 14.5367 15C14.4081 15 14.2993 14.9551 14.2103 14.8654C14.1214 14.7756 14.0769 14.6666 14.0769 14.5384V13.5H3.92306ZM4.06162 8.36531H13.9384L12.9491 5.55281C12.9106 5.45669 12.8529 5.38219 12.7759 5.32931C12.699 5.27644 12.6077 5.25 12.5019 5.25H5.49806C5.39231 5.25 5.301 5.27644 5.22412 5.32931C5.14712 5.38219 5.08938 5.45669 5.05088 5.55281L4.06162 8.36531ZM5.57063 11.7692C5.804 11.7692 6.00119 11.6876 6.16219 11.5243C6.32331 11.3609 6.40388 11.1626 6.40388 10.9294C6.40388 10.696 6.32219 10.4988 6.15881 10.3378C5.99556 10.1767 5.79725 10.0961 5.56387 10.0961C5.33062 10.0961 5.13344 10.1778 4.97231 10.3412C4.81131 10.5044 4.73081 10.7028 4.73081 10.9361C4.73081 11.1694 4.81244 11.3666 4.97569 11.5277C5.13906 11.6887 5.33738 11.7692 5.57063 11.7692ZM12.4361 11.7692C12.6694 11.7692 12.8666 11.6876 13.0277 11.5243C13.1887 11.3609 13.2692 11.1626 13.2692 10.9294C13.2692 10.696 13.1876 10.4988 13.0243 10.3378C12.8609 10.1767 12.6626 10.0961 12.4294 10.0961C12.196 10.0961 11.9988 10.1778 11.8378 10.3412C11.6767 10.5044 11.5961 10.7028 11.5961 10.9361C11.5961 11.1694 11.6778 11.3666 11.8412 11.5277C12.0044 11.6887 12.2028 11.7692 12.4361 11.7692ZM3.75 12.75H14.25V9.11531H3.75V12.75Z" fill="#292C30"/>
</g>
</svg>
