<svg width="24" height="24" viewBox="0 0 24 24" fill="none" xmlns="http://www.w3.org/2000/svg">
<mask id="mask0_91_117" style="mask-type:alpha" maskUnits="userSpaceOnUse" x="0" y="0" width="24" height="24">
<rect width="24" height="24" fill="#D9D9D9"/>
</mask>
<g mask="url(#mask0_91_117)">
<path d="M10.5615 13.9808L8.0655 11.4845C7.97183 11.391 7.85708 11.341 7.72125 11.3345C7.58525 11.3282 7.46408 11.3782 7.35775 11.4845C7.25125 11.591 7.198 11.709 7.198 11.8385C7.198 11.968 7.25125 12.0859 7.35775 12.1923L9.99625 14.8307C10.1578 14.9922 10.3462 15.073 10.5615 15.073C10.7768 15.073 10.9653 14.9922 11.127 14.8307L16.6038 9.35375C16.6974 9.26025 16.7474 9.1455 16.7538 9.0095C16.7603 8.87367 16.7103 8.75258 16.6038 8.64625C16.4974 8.53975 16.3795 8.4865 16.25 8.4865C16.1205 8.4865 16.0026 8.53975 15.8962 8.64625L10.5615 13.9808ZM5.6155 20C5.168 20 4.78683 19.8427 4.472 19.528C4.15733 19.2132 4 18.832 4 18.3845V5.6155C4 5.168 4.15733 4.78683 4.472 4.472C4.78683 4.15733 5.168 4 5.6155 4H10.3155C10.2243 3.48967 10.3464 3.02875 10.6817 2.61725C11.0169 2.20575 11.4563 2 12 2C12.5563 2 13.0022 2.20575 13.3375 2.61725C13.6728 3.02875 13.7885 3.48967 13.6845 4H18.3845C18.832 4 19.2132 4.15733 19.528 4.472C19.8427 4.78683 20 5.168 20 5.6155V18.3845C20 18.832 19.8427 19.2132 19.528 19.528C19.2132 19.8427 18.832 20 18.3845 20H5.6155ZM5.6155 19H18.3845C18.5385 19 18.6796 18.9359 18.8077 18.8078C18.9359 18.6796 19 18.5385 19 18.3845V5.6155C19 5.4615 18.9359 5.32042 18.8077 5.19225C18.6796 5.06408 18.5385 5 18.3845 5H5.6155C5.4615 5 5.32042 5.06408 5.19225 5.19225C5.06408 5.32042 5 5.4615 5 5.6155V18.3845C5 18.5385 5.06408 18.6796 5.19225 18.8078C5.32042 18.9359 5.4615 19 5.6155 19ZM12 4.44225C12.2167 4.44225 12.3958 4.37142 12.5375 4.22975C12.6792 4.08808 12.75 3.90892 12.75 3.69225C12.75 3.47558 12.6792 3.29642 12.5375 3.15475C12.3958 3.01308 12.2167 2.94225 12 2.94225C11.7833 2.94225 11.6042 3.01308 11.4625 3.15475C11.3208 3.29642 11.25 3.47558 11.25 3.69225C11.25 3.90892 11.3208 4.08808 11.4625 4.22975C11.6042 4.37142 11.7833 4.44225 12 4.44225Z" fill="#ABABAB"/>
</g>
</svg>
