<svg width="20" height="20" viewBox="0 0 20 20" fill="none" xmlns="http://www.w3.org/2000/svg">
<mask id="mask0_91_268" style="mask-type:alpha" maskUnits="userSpaceOnUse" x="0" y="0" width="20" height="20">
<rect width="20" height="20" fill="#D9D9D9"/>
</mask>
<g mask="url(#mask0_91_268)">
<path d="M10 16.3975C11.5662 15.0342 12.8045 13.6476 13.7148 12.2379C14.6251 10.8282 15.0802 9.60896 15.0802 8.58021C15.0802 7.05562 14.5976 5.79729 13.6323 4.80521C12.667 3.81326 11.4562 3.31729 10 3.31729C8.54375 3.31729 7.33298 3.81326 6.36771 4.80521C5.40243 5.79729 4.91979 7.05562 4.91979 8.58021C4.91979 9.60896 5.37493 10.8282 6.28521 12.2379C7.19548 13.6476 8.43375 15.0342 10 16.3975ZM10 17.1298C9.86972 17.1298 9.73937 17.1084 9.60896 17.0656C9.47868 17.023 9.35847 16.9535 9.24833 16.8573C8.65542 16.3124 8.05444 15.7056 7.44541 15.0369C6.83653 14.3681 6.2834 13.6756 5.78604 12.9592C5.28868 12.2428 4.88111 11.5115 4.56333 10.7652C4.24541 10.019 4.08646 9.29062 4.08646 8.58021C4.08646 6.81729 4.66048 5.36319 5.80854 4.21792C6.95646 3.07264 8.35361 2.5 10 2.5C11.6464 2.5 13.0435 3.07264 14.1915 4.21792C15.3395 5.36319 15.9135 6.81729 15.9135 8.58021C15.9135 9.29062 15.7546 10.0163 15.4367 10.7573C15.1189 11.4981 14.714 12.2294 14.2219 12.951C13.7299 13.6728 13.1794 14.3654 12.5704 15.0287C11.9615 15.6922 11.3606 16.2964 10.7677 16.8413C10.6615 16.9375 10.5408 17.0097 10.4056 17.0577C10.2703 17.1058 10.1351 17.1298 10 17.1298ZM10.0029 9.77562C10.3739 9.77562 10.6905 9.64354 10.9527 9.37937C11.2151 9.11521 11.3462 8.79764 11.3462 8.42667C11.3462 8.05569 11.2141 7.73903 10.9498 7.47667C10.6856 7.21444 10.3681 7.08333 9.99708 7.08333C9.62611 7.08333 9.30951 7.21542 9.04729 7.47958C8.78493 7.74375 8.65375 8.06132 8.65375 8.43229C8.65375 8.80326 8.7859 9.11993 9.05021 9.38229C9.31437 9.64451 9.63194 9.77562 10.0029 9.77562Z" fill="#53A653"/>
</g>
</svg>
