<svg width="18" height="18" viewBox="0 0 18 18" fill="none" xmlns="http://www.w3.org/2000/svg">
<mask id="mask0_91_252" style="mask-type:alpha" maskUnits="userSpaceOnUse" x="0" y="0" width="18" height="18">
<rect width="18" height="18" fill="#D9D9D9"/>
</mask>
<g mask="url(#mask0_91_252)">
<path d="M9 8.53838C8.38125 8.53838 7.85156 8.31806 7.41094 7.87744C6.97031 7.43681 6.75 6.90713 6.75 6.28838C6.75 5.66963 6.97031 5.13994 7.41094 4.69931C7.85156 4.25869 8.38125 4.03838 9 4.03838C9.61875 4.03838 10.1484 4.25869 10.5891 4.69931C11.0297 5.13994 11.25 5.66963 11.25 6.28838C11.25 6.90713 11.0297 7.43681 10.5891 7.87744C10.1484 8.31806 9.61875 8.53838 9 8.53838ZM3.75 13.9616V12.7269C3.75 12.4173 3.84012 12.1276 4.02037 11.8579C4.20075 11.5883 4.44331 11.3789 4.74806 11.2298C5.45581 10.8904 6.164 10.6358 6.87263 10.4661C7.58125 10.2964 8.29037 10.2116 9 10.2116C9.70963 10.2116 10.4188 10.2964 11.1274 10.4661C11.836 10.6358 12.5442 10.8904 13.2519 11.2298C13.5567 11.3789 13.7993 11.5883 13.9796 11.8579C14.1599 12.1276 14.25 12.4173 14.25 12.7269V13.9616H3.75ZM4.5 13.2116H13.5V12.7269C13.5 12.5606 13.4464 12.4043 13.3391 12.2582C13.232 12.1121 13.0837 11.9885 12.8942 11.8875C12.2769 11.5885 11.6405 11.3594 10.9849 11.2003C10.3292 11.0412 9.66763 10.9616 9 10.9616C8.33237 10.9616 7.67075 11.0412 7.01513 11.2003C6.3595 11.3594 5.72306 11.5885 5.10581 11.8875C4.91631 11.9885 4.768 12.1121 4.66088 12.2582C4.55363 12.4043 4.5 12.5606 4.5 12.7269V13.2116ZM9 7.78838C9.4125 7.78838 9.76563 7.6415 10.0594 7.34775C10.3531 7.054 10.5 6.70088 10.5 6.28838C10.5 5.87588 10.3531 5.52275 10.0594 5.229C9.76563 4.93525 9.4125 4.78838 9 4.78838C8.5875 4.78838 8.23438 4.93525 7.94063 5.229C7.64688 5.52275 7.5 5.87588 7.5 6.28838C7.5 6.70088 7.64688 7.054 7.94063 7.34775C8.23438 7.6415 8.5875 7.78838 9 7.78838Z" fill="#292C30"/>
</g>
</svg>
