<svg width="18" height="18" viewBox="0 0 18 18" fill="none" xmlns="http://www.w3.org/2000/svg">
<mask id="mask0_91_132" style="mask-type:alpha" maskUnits="userSpaceOnUse" x="0" y="0" width="18" height="18">
<rect width="18" height="18" fill="#D9D9D9"/>
</mask>
<g mask="url(#mask0_91_132)">
<path d="M5.68275 11.5097H8.76919C8.94331 11.5097 9.08781 11.4522 9.20269 11.3372C9.31756 11.2223 9.375 11.0779 9.375 10.9039V10.6442C9.375 10.4702 9.31756 10.3258 9.20269 10.2109C9.08781 10.0959 8.94331 10.0384 8.76919 10.0384H5.68275C5.50862 10.0384 5.36412 10.0959 5.24925 10.2109C5.13437 10.3258 5.07694 10.4702 5.07694 10.6442V10.9039C5.07694 11.0779 5.13437 11.2223 5.24925 11.3372C5.36412 11.4522 5.50862 11.5097 5.68275 11.5097ZM12.0578 11.5097H12.3172C12.4914 11.5097 12.6359 11.4522 12.7507 11.3372C12.8656 11.2223 12.9231 11.0779 12.9231 10.9039V7.09613C12.9231 6.92213 12.8656 6.77769 12.7507 6.66281C12.6359 6.54781 12.4914 6.49031 12.3172 6.49031H12.0578C11.8836 6.49031 11.7391 6.54781 11.6243 6.66281C11.5094 6.77769 11.4519 6.92213 11.4519 7.09613V10.9039C11.4519 11.0779 11.5094 11.2223 11.6243 11.3372C11.7391 11.4522 11.8836 11.5097 12.0578 11.5097ZM5.68275 7.96162H8.76919C8.94331 7.96162 9.08781 7.90412 9.20269 7.78912C9.31756 7.67425 9.375 7.52981 9.375 7.35581V7.09613C9.375 6.92213 9.31756 6.77769 9.20269 6.66281C9.08781 6.54781 8.94331 6.49031 8.76919 6.49031H5.68275C5.50862 6.49031 5.36412 6.54781 5.24925 6.66281C5.13437 6.77769 5.07694 6.92213 5.07694 7.09613V7.35581C5.07694 7.52981 5.13437 7.67425 5.24925 7.78912C5.36412 7.90412 5.50862 7.96162 5.68275 7.96162ZM3.46162 14.25C3.11637 14.25 2.82813 14.1344 2.59688 13.9031C2.36563 13.6719 2.25 13.3836 2.25 13.0384V4.96162C2.25 4.61637 2.36563 4.32813 2.59688 4.09688C2.82813 3.86563 3.11637 3.75 3.46162 3.75H14.5384C14.8836 3.75 15.1719 3.86563 15.4031 4.09688C15.6344 4.32813 15.75 4.61637 15.75 4.96162V13.0384C15.75 13.3836 15.6344 13.6719 15.4031 13.9031C15.1719 14.1344 14.8836 14.25 14.5384 14.25H3.46162ZM3.46162 13.5H14.5384C14.6539 13.5 14.7597 13.4519 14.8558 13.3558C14.9519 13.2597 15 13.1539 15 13.0384V4.96162C15 4.84612 14.9519 4.74031 14.8558 4.64419C14.7597 4.54806 14.6539 4.5 14.5384 4.5H3.46162C3.34612 4.5 3.24031 4.54806 3.14419 4.64419C3.04806 4.74031 3 4.84612 3 4.96162V13.0384C3 13.1539 3.04806 13.2597 3.14419 13.3558C3.24031 13.4519 3.34612 13.5 3.46162 13.5Z" fill="#292C30"/>
</g>
</svg>
