<svg width="32" height="32" viewBox="0 0 32 32" fill="none" xmlns="http://www.w3.org/2000/svg">
<rect width="32" height="32" rx="16" fill="#D1E4FF"/>
<mask id="mask0_1_98" style="mask-type:alpha" maskUnits="userSpaceOnUse" x="3" y="5" width="24" height="24">
<rect x="3" y="5" width="24" height="24" fill="#D9D9D9"/>
</mask>
<g mask="url(#mask0_1_98)">
<path d="M13.7038 18.2578L8.69026 16.2287C8.5121 16.1582 8.38585 16.0527 8.31151 15.9122C8.23718 15.7717 8.20001 15.6278 8.20001 15.4805C8.20001 15.3332 8.24135 15.1881 8.32401 15.0452C8.40668 14.9022 8.5371 14.7955 8.71526 14.725L20.7458 10.173C20.9024 10.1063 21.0564 10.0937 21.2078 10.135C21.3589 10.1762 21.4896 10.2518 21.5998 10.362C21.7098 10.472 21.7853 10.6026 21.8265 10.7538C21.8678 10.9051 21.8549 11.0591 21.7878 11.2157L17.1955 23.2335C17.1285 23.403 17.0245 23.5302 16.8835 23.615C16.7425 23.6998 16.5982 23.7422 16.4505 23.7422C16.3027 23.7422 16.1568 23.7015 16.013 23.62C15.869 23.5385 15.7628 23.4094 15.6943 23.2327L13.7038 18.2578ZM16.4345 22.377L20.7155 11.2462L9.54626 15.4885L14.4463 17.477L16.4345 22.377Z" fill="#225AAC"/>
</g>
</svg>
