<svg width="32" height="32" viewBox="0 0 32 32" fill="none" xmlns="http://www.w3.org/2000/svg">
<rect width="32" height="32" rx="16" fill="#D1E4FF"/>
<path d="M16 22.4286C15.7536 22.4286 15.5243 22.3014 15.3943 22.0929C14.9079 21.3143 10.6429 14.405 10.6429 11.5893C10.6429 8.50714 13.0457 6 16 6C18.9543 6 21.3571 8.50714 21.3571 11.5893C21.3571 14.405 17.0921 21.3143 16.6057 22.0929C16.4757 22.3014 16.2464 22.4286 16 22.4286ZM16 7.42857C13.8336 7.42857 12.0714 9.295 12.0714 11.5893C12.0714 13.355 14.5229 17.8514 16 20.3386C17.4771 17.8514 19.9286 13.3543 19.9286 11.5893C19.9286 9.295 18.1657 7.42857 16 7.42857ZM26 21.7143C26 20.2507 24.555 19.0086 21.9307 18.2171C21.5486 18.1029 21.1536 18.3179 21.0407 18.695C20.9264 19.0729 21.1407 19.4707 21.5179 19.585C23.3729 20.1443 24.5714 20.98 24.5714 21.7143C24.5714 22.9071 21.3107 24.5714 16 24.5714C10.6893 24.5714 7.42857 22.9071 7.42857 21.7143C7.42857 20.98 8.62643 20.1443 10.4807 19.5857C10.8586 19.4714 11.0721 19.0736 10.9586 18.6957C10.845 18.3179 10.445 18.1057 10.0686 18.2179C7.445 19.0086 6 20.2507 6 21.7143C6 24.4979 11.1521 26 16 26C20.8479 26 26 24.4979 26 21.7143ZM16 13.8571C14.8186 13.8571 13.8571 12.8957 13.8571 11.7143C13.8571 10.5329 14.8186 9.57143 16 9.57143C17.1814 9.57143 18.1429 10.5329 18.1429 11.7143C18.1429 12.8957 17.1814 13.8571 16 13.8571ZM16 11C15.6064 11 15.2857 11.3207 15.2857 11.7143C15.2857 12.1079 15.6064 12.4286 16 12.4286C16.3936 12.4286 16.7143 12.1079 16.7143 11.7143C16.7143 11.3207 16.3936 11 16 11Z" fill="#225AAC"/>
</svg>
