<svg width="18" height="18" viewBox="0 0 18 18" fill="none" xmlns="http://www.w3.org/2000/svg">
<mask id="mask0_1_68" style="mask-type:alpha" maskUnits="userSpaceOnUse" x="0" y="0" width="18" height="18">
<rect width="18" height="18" fill="#D9D9D9"/>
</mask>
<g mask="url(#mask0_1_68)">
<path d="M8.2125 12.6491L11.9308 8.93081L11.3914 8.39137L8.20819 11.5746L6.60431 9.97069L6.06919 10.5058L8.2125 12.6491ZM4.96162 15.75C4.61637 15.75 4.32812 15.6344 4.09688 15.4031C3.86563 15.1719 3.75 14.8836 3.75 14.5384V3.46162C3.75 3.11637 3.86563 2.82812 4.09688 2.59688C4.32812 2.36563 4.61637 2.25 4.96162 2.25H10.875L14.25 5.625V14.5384C14.25 14.8836 14.1344 15.1719 13.9031 15.4031C13.6719 15.6344 13.3836 15.75 13.0384 15.75H4.96162ZM10.5 6V3H4.96162C4.84612 3 4.74031 3.04806 4.64419 3.14419C4.54806 3.24031 4.5 3.34612 4.5 3.46162V14.5384C4.5 14.6539 4.54806 14.7597 4.64419 14.8558C4.74031 14.9519 4.84612 15 4.96162 15H13.0384C13.1539 15 13.2597 14.9519 13.3558 14.8558C13.4519 14.7597 13.5 14.6539 13.5 14.5384V6H10.5Z" fill="#292C30"/>
</g>
</svg>
