<svg width="18" height="11" viewBox="0 0 18 11" fill="none" xmlns="http://www.w3.org/2000/svg">
<path d="M9.00376 8.62813C9.85057 8.62813 10.5691 8.33174 11.1594 7.73896C11.7497 7.14618 12.0448 6.42639 12.0448 5.57958C12.0448 4.73278 11.7484 4.01424 11.1556 3.42396C10.5629 2.83368 9.84307 2.53854 8.99626 2.53854C8.14946 2.53854 7.43091 2.83493 6.84064 3.42771C6.25036 4.02049 5.95522 4.74028 5.95522 5.58708C5.95522 6.43389 6.25161 7.15243 6.84439 7.74271C7.43716 8.33299 8.15696 8.62813 9.00376 8.62813ZM9.00001 7.83333C8.37501 7.83333 7.84376 7.61458 7.40626 7.17708C6.96876 6.73958 6.75001 6.20833 6.75001 5.58333C6.75001 4.95833 6.96876 4.42708 7.40626 3.98958C7.84376 3.55208 8.37501 3.33333 9.00001 3.33333C9.62501 3.33333 10.1563 3.55208 10.5938 3.98958C11.0313 4.42708 11.25 4.95833 11.25 5.58333C11.25 6.20833 11.0313 6.73958 10.5938 7.17708C10.1563 7.61458 9.62501 7.83333 9.00001 7.83333ZM9.00001 11C7.35251 11 5.84154 10.5641 4.4671 9.69229C3.09265 8.82049 1.98237 7.67736 1.13626 6.26292C1.06682 6.14847 1.01737 6.0357 0.987928 5.92458C0.958623 5.81347 0.94397 5.69945 0.94397 5.5825C0.94397 5.46556 0.958623 5.35181 0.987928 5.24125C1.01737 5.1307 1.06682 5.0182 1.13626 4.90375C1.98237 3.48931 3.09265 2.34618 4.4671 1.47438C5.84154 0.602571 7.35251 0.166668 9.00001 0.166668C10.6475 0.166668 12.1585 0.602571 13.5329 1.47438C14.9074 2.34618 16.0177 3.48931 16.8638 4.90375C16.9332 5.0182 16.9827 5.13097 17.0121 5.24208C17.0414 5.3532 17.0561 5.46722 17.0561 5.58417C17.0561 5.70111 17.0414 5.81486 17.0121 5.92542C16.9827 6.03597 16.9332 6.14847 16.8638 6.26292C16.0177 7.67736 14.9074 8.82049 13.5329 9.69229C12.1585 10.5641 10.6475 11 9.00001 11ZM9.00001 10.1667C10.5695 10.1667 12.0104 9.75347 13.3229 8.92708C14.6354 8.1007 15.6389 6.98611 16.3333 5.58333C15.6389 4.18056 14.6354 3.06597 13.3229 2.23958C12.0104 1.4132 10.5695 1 9.00001 1C7.43057 1 5.9896 1.4132 4.6771 2.23958C3.3646 3.06597 2.36112 4.18056 1.66668 5.58333C2.36112 6.98611 3.3646 8.1007 4.6771 8.92708C5.9896 9.75347 7.43057 10.1667 9.00001 10.1667Z" fill="#AAAAAA"/>
</svg>
