<svg width="20" height="20" viewBox="0 0 20 20" fill="none" xmlns="http://www.w3.org/2000/svg">
<mask id="mask0_91_246" style="mask-type:alpha" maskUnits="userSpaceOnUse" x="0" y="0" width="20" height="20">
<rect width="20" height="20" fill="#D9D9D9"/>
</mask>
<g mask="url(#mask0_91_246)">
<path d="M12.149 7.43437C12.4236 7.70895 12.652 8.07375 12.8342 8.52875C13.0163 8.98389 13.0902 9.42889 13.0561 9.86375C13.0561 9.97597 13.0171 10.0703 12.9392 10.1467C12.8611 10.2231 12.766 10.2612 12.6538 10.2612C12.5417 10.2612 12.4474 10.2231 12.3711 10.1467C12.2947 10.0703 12.2565 9.97597 12.2565 9.86375C12.2938 9.49194 12.2543 9.14472 12.1379 8.82208C12.0214 8.49944 11.8451 8.22007 11.609 7.98395C11.3729 7.74784 11.0881 7.57 10.7548 7.45041C10.4215 7.33069 10.0727 7.29486 9.70835 7.34291C9.59612 7.35361 9.49647 7.32263 9.40939 7.25C9.3223 7.17736 9.27348 7.08493 9.26293 6.9727C9.25223 6.86062 9.28237 6.76104 9.35335 6.67395C9.42446 6.58687 9.51605 6.53798 9.62814 6.52729C10.0705 6.47173 10.5246 6.53236 10.9904 6.70916C11.4563 6.88597 11.8424 7.1277 12.149 7.43437ZM10 5C9.67196 5 9.34821 5.0184 9.02876 5.05521C8.70932 5.09215 8.39258 5.14909 8.07855 5.22604C7.95994 5.25701 7.8523 5.24097 7.75564 5.17791C7.65897 5.11486 7.59196 5.03097 7.5546 4.92625C7.5171 4.81083 7.528 4.70507 7.5873 4.60895C7.64661 4.51284 7.73397 4.4493 7.84939 4.41833C8.20092 4.3275 8.55585 4.26284 8.91418 4.22437C9.27265 4.1859 9.63459 4.16666 10 4.16666C11.6785 4.16666 13.2284 4.59722 14.6498 5.45833C16.0713 6.31944 17.172 7.49041 17.9519 8.97125C18.0074 9.07166 18.0465 9.1702 18.069 9.26687C18.0913 9.36354 18.1025 9.46902 18.1025 9.58333C18.1025 9.69764 18.0921 9.80312 18.0713 9.89979C18.0504 9.99645 18.0122 10.095 17.9567 10.1954C17.696 10.7083 17.3843 11.1838 17.0217 11.6219C16.6589 12.0598 16.2606 12.4642 15.8269 12.835C15.7351 12.9129 15.6341 12.946 15.524 12.9344C15.414 12.9226 15.3216 12.8675 15.2469 12.7692C15.172 12.671 15.1424 12.5687 15.1579 12.4623C15.1733 12.356 15.227 12.2639 15.319 12.1858C15.7377 11.8237 16.1181 11.4258 16.46 10.9921C16.8018 10.5582 17.0929 10.0886 17.3333 9.58333C16.6389 8.18055 15.6354 7.06597 14.3229 6.23958C13.0104 5.41319 11.5695 5 10 5ZM10 15C8.35251 15 6.83807 14.566 5.45668 13.6979C4.07529 12.8299 2.96689 11.6832 2.13147 10.2579C2.06203 10.1575 2.01258 10.0494 1.98314 9.93354C1.95383 9.81757 1.93918 9.70083 1.93918 9.58333C1.93918 9.46583 1.95307 9.34993 1.98085 9.23562C2.00862 9.12132 2.05723 9.01236 2.12668 8.90875C2.46848 8.3318 2.84744 7.78451 3.26355 7.26687C3.6798 6.74923 4.1614 6.29277 4.70835 5.8975L2.6746 3.85895C2.59668 3.7777 2.55585 3.68132 2.5521 3.56979C2.54835 3.45812 2.59085 3.35791 2.6796 3.26916C2.76821 3.18055 2.86647 3.13625 2.97439 3.13625C3.0823 3.13625 3.18057 3.18055 3.26918 3.26916L16.7308 16.7308C16.8088 16.8087 16.8512 16.9035 16.8581 17.0152C16.8651 17.1269 16.8227 17.2286 16.7308 17.3204C16.6421 17.4092 16.5438 17.4535 16.4358 17.4535C16.3279 17.4535 16.2297 17.4092 16.1411 17.3204L13.1923 14.3815C12.6955 14.609 12.1784 14.769 11.6411 14.8615C11.1037 14.9538 10.5567 15 10 15ZM5.29814 6.48708C4.72439 6.88027 4.21473 7.33757 3.76918 7.85895C3.32376 8.38034 2.95626 8.95514 2.66668 9.58333C3.36112 10.9861 4.3646 12.1007 5.6771 12.9271C6.9896 13.7535 8.43057 14.1667 10 14.1667C10.4381 14.1667 10.8718 14.136 11.3013 14.0746C11.7307 14.0131 12.1485 13.9027 12.5546 13.7435L11.1954 12.375C11.0107 12.4808 10.8195 12.5494 10.6219 12.5808C10.4242 12.6124 10.217 12.6281 10 12.6281C9.15071 12.6281 8.43092 12.333 7.84064 11.7427C7.25036 11.1524 6.95522 10.4326 6.95522 9.58333C6.95522 9.36639 6.97362 9.15909 7.01043 8.96145C7.04723 8.76382 7.11321 8.57263 7.20835 8.38791L5.29814 6.48708Z" fill="#1D1D1D"/>
</g>
</svg>
